<?xml version="1.0" encoding="utf-8"?>
<!-- Generator: Adobe Illustrator 24.3.0, SVG Export Plug-In . SVG Version: 6.00 Build 0)  -->
<svg version="1.1" id="Layer_1" xmlns="http://www.w3.org/2000/svg" xmlns:xlink="http://www.w3.org/1999/xlink" x="0px" y="0px"
	 viewBox="0 0 250 138.69" style="enable-background:new 0 0 250 138.69;" xml:space="preserve">
<style type="text/css">
	.st0{fill:#EDEBF3;}
	.st1{fill:#E8E8E8;}
	.st2{fill:#FDFEFE;}
	.st3{fill:#8FD6E8;}
	.st4{fill:#F2F2F3;}
	.st5{fill:#D4D4D4;}
	.st6{fill:#D3D3D3;}
	.st7{fill:#1F77B9;}
	.st8{fill:#445EAB;}
	.st9{fill:#D6DE2A;}
	.st10{fill:#B3B935;}
	.st11{fill:#FFE41D;}
	.st12{fill:#252159;}
	.st13{fill:#1E305F;}
	.st14{fill:#344579;}
	.st15{fill:#00A9D5;}
	.st16{fill:#F7A4A5;}
	.st17{fill:#292F71;}
	.st18{fill:#FFC716;}
	.st19{fill:#FED402;}
	.st20{fill:#E2D1A6;}
	.st21{fill:#368AC7;}
</style>
<g id="Group_2524" transform="translate(-238.004 -84.309)">
	<path id="Path_2015" class="st0" d="M488,215.63c0,4.07-22.77,7.37-50.86,7.37c-28.09,0-50.86-3.3-50.86-7.37
		c0-4.07,22.77-7.37,50.86-7.37C465.23,208.26,488,211.56,488,215.63z"/>
	<path id="Path_2016" class="st0" d="M339.72,215.63c0,4.07-22.77,7.37-50.86,7.37c-28.09,0-50.86-3.3-50.86-7.37
		c0-4.07,22.77-7.37,50.86-7.37C316.95,208.26,339.72,211.56,339.72,215.63z"/>
	<g id="Group_2523" transform="translate(247.626 84.309)">
		<g id="Group_2495" transform="translate(42.254 18.231)">
			<g id="Group_2493" transform="translate(19.393)">
				<g id="Group_2492">
					<g id="Group_2491">
						<path id="Rectangle_695" class="st1" d="M-15.08-4.11h134.06c1.27,0,2.3,1.03,2.3,2.3v95.13c0,1.27-1.03,2.3-2.3,2.3H-15.08
							c-1.27,0-2.3-1.03-2.3-2.3V-1.81C-17.39-3.08-16.35-4.11-15.08-4.11z"/>
						<path id="Path_2017" class="st2" d="M118.53,96.07H-14.63c-1.77,0-3.2-1.43-3.2-3.2V-1.36c0-1.77,1.43-3.2,3.2-3.2h133.16
							c1.77,0,3.2,1.43,3.2,3.2v94.23C121.73,94.64,120.3,96.07,118.53,96.07z M-14.63-3.66c-1.27,0-2.3,1.03-2.3,2.3v94.23
							c0,1.27,1.03,2.3,2.3,2.3h133.16c1.27,0,2.3-1.03,2.3-2.3V-1.36c0-1.27-1.03-2.3-2.3-2.3L-14.63-3.66z"/>
					</g>
					<path id="Rectangle_696" class="st3" d="M-10.7,4.31h125.29c1.17,0,2.12,0.95,2.12,2.12v71.51c0,1.17-0.95,2.12-2.12,2.12
						H-10.7c-1.17,0-2.12-0.95-2.12-2.12c0,0,0,0,0,0V6.44C-12.82,5.26-11.87,4.31-10.7,4.31C-10.7,4.31-10.7,4.31-10.7,4.31z"/>
					<path id="Path_2018" class="st4" d="M29.37,55.46c0.14-1.26,0.14-2.52,0-3.78c-2.29-0.62-4.89-1.18-5.18-2.08
						c-0.31-0.93,1.45-2.92,2.94-4.76c-0.62-1.07-1.35-2.07-2.19-2.99c-2.22,0.84-4.64,1.9-5.42,1.33c-0.78-0.57-0.51-3.2-0.39-5.57
						c-1.12-0.51-2.3-0.9-3.51-1.15c-1.3,1.99-2.65,4.27-3.64,4.27s-2.35-2.29-3.65-4.27c-1.21,0.26-2.39,0.64-3.51,1.15
						c0.12,2.37,0.38,5.01-0.39,5.57C3.65,43.74,1.21,42.69-1,41.85c-0.83,0.92-1.57,1.92-2.18,2.99c1.49,1.84,3.24,3.82,2.94,4.76
						c-0.29,0.9-2.89,1.46-5.18,2.08c-0.14,1.26-0.14,2.52,0,3.78c2.29,0.62,4.89,1.18,5.18,2.08c0.31,0.94-1.45,2.92-2.94,4.76
						c0.62,1.07,1.35,2.07,2.18,2.99c2.21-0.84,4.64-1.9,5.42-1.33s0.51,3.21,0.39,5.58c1.13,0.51,2.3,0.89,3.51,1.15
						c1.29-1.99,2.64-4.27,3.65-4.27s2.35,2.29,3.64,4.27c1.21-0.26,2.38-0.64,3.51-1.15c-0.12-2.37-0.38-5.01,0.39-5.58
						s3.21,0.49,5.42,1.33c0.83-0.92,1.57-1.92,2.19-2.99c-1.49-1.84-3.25-3.82-2.94-4.76C24.48,56.64,27.07,56.08,29.37,55.46z
						 M11.97,62.19c-4.76,0-8.62-3.86-8.62-8.62s3.86-8.62,8.62-8.62s8.62,3.86,8.62,8.62C20.59,58.33,16.73,62.19,11.97,62.19
						L11.97,62.19z"/>
					<path id="Path_2019" class="st4" d="M114.5,27.14c0.1-0.92,0.1-1.86,0-2.78c-1.69-0.46-3.6-0.87-3.81-1.53
						c-0.22-0.69,1.07-2.15,2.16-3.51c-0.46-0.79-1-1.53-1.61-2.2c-1.63,0.62-3.42,1.4-3.99,0.97s-0.37-2.36-0.29-4.1
						c-0.83-0.38-1.69-0.66-2.58-0.85c-0.95,1.46-1.95,3.15-2.68,3.15s-1.73-1.68-2.68-3.15c-0.89,0.19-1.76,0.47-2.59,0.85
						c0.09,1.74,0.28,3.69-0.29,4.1s-2.36-0.36-3.99-0.97c-0.61,0.67-1.15,1.41-1.61,2.2c1.1,1.35,2.39,2.82,2.16,3.5
						c-0.21,0.66-2.13,1.07-3.82,1.53c-0.1,0.92-0.1,1.86,0,2.78c1.69,0.46,3.6,0.87,3.82,1.53c0.22,0.69-1.07,2.15-2.16,3.51
						c0.46,0.79,1,1.53,1.61,2.2c1.63-0.62,3.42-1.4,3.99-0.98s0.37,2.36,0.29,4.11c0.83,0.37,1.7,0.66,2.59,0.85
						c0.95-1.46,1.95-3.15,2.68-3.15c0.73,0,1.73,1.69,2.68,3.15c0.89-0.19,1.76-0.47,2.58-0.85c-0.09-1.74-0.28-3.69,0.29-4.11
						c0.57-0.42,2.36,0.36,3.99,0.98c0.61-0.68,1.15-1.42,1.61-2.21c-1.1-1.36-2.39-2.82-2.16-3.51
						C110.9,28.01,112.81,27.6,114.5,27.14z M101.69,32.1c-3.51,0-6.35-2.84-6.35-6.35s2.84-6.35,6.35-6.35
						c3.51,0,6.35,2.84,6.35,6.35c0,0,0,0,0,0C108.04,29.26,105.19,32.1,101.69,32.1L101.69,32.1z"/>
					<path id="Path_2020" class="st5" d="M114.17,4.31H-10.28c-0.79,0-1.53,0.37-2.01,1c0.44-0.34,0.98-0.53,1.54-0.53h124.45
						c1.4,0,2.54,1.14,2.54,2.54v70.67c0,0.56-0.19,1.1-0.53,1.54c0.63-0.48,1-1.22,1-2.01V6.86
						C116.72,5.45,115.58,4.31,114.17,4.31C114.18,4.31,114.18,4.31,114.17,4.31z"/>
				</g>
			</g>
			<g id="Group_2494" transform="translate(0 126.238)">
				<path id="Path_2021" class="st6" d="M-12.4-36.15c-1.66,4.13,0.35,8.83,4.49,10.48c0.96,0.38,1.98,0.58,3.01,0.58h152.5
					c4.45,0.01,8.07-3.6,8.07-8.05c0-1.03-0.2-2.06-0.58-3.01H-12.4z"/>
				<path id="Path_2022" class="st4" d="M155.65-33.51c-0.04-0.9-0.23-1.79-0.56-2.63H-12.4c-0.33,0.84-0.52,1.73-0.56,2.63H155.65z
					"/>
			</g>
		</g>
		<g id="Group_2502" transform="translate(110.895)">
			<g id="Group_2501">
				<g id="Group_2499" transform="translate(5.565)">
					<g id="Group_2497">
						<g id="Group_2496">
							<path id="Path_2023" class="st7" d="M-2.86,64.78c-15.82,0-28.68-11.71-28.68-26.11V26.1C-31.55,11.71-18.68,0-2.86,0
								s28.68,11.71,28.68,26.1v12.56C25.82,53.06,12.95,64.78-2.86,64.78z M-2.86,5.59c-12.73,0-23.09,9.2-23.09,20.52v12.56
								c0,11.31,10.36,20.52,23.09,20.52s23.09-9.2,23.09-20.52V26.1C20.23,14.79,9.87,5.59-2.86,5.59L-2.86,5.59z"/>
						</g>
					</g>
					<g id="Group_2498" transform="translate(5.978)">
						<path id="Path_2024" class="st8" d="M-9.4,5.61c-0.18,0-0.37-0.02-0.55-0.02c-12.73,0-23.09,9.2-23.09,20.52v12.56
							c0,11.31,10.36,20.52,23.09,20.52c0.19,0,0.37-0.02,0.55-0.02c-12.48-0.26-22.54-9.34-22.54-20.49V26.1
							C-31.94,14.96-21.87,5.88-9.4,5.61z"/>
						<path id="Path_2025" class="st8" d="M-8.84,0C-9.03,0-9.21,0.02-9.4,0.02C6.16,0.3,18.73,11.88,18.73,26.1v12.56
							c0,14.22-12.57,25.81-28.13,26.08c0.19,0,0.37,0.03,0.55,0.03c15.81,0,28.68-11.71,28.68-26.11V26.1
							C19.84,11.71,6.97,0-8.84,0z"/>
					</g>
				</g>
				<path id="Path_2026" class="st9" d="M23.09,33.06c-0.42,2.32-1.33,4.64-3.34,4.89c-4.14,0.52-9.42-4.31-17.05-4.02
					c-7.62-0.29-12.91,4.54-17.05,4.02c-2.01-0.26-2.93-2.58-3.35-4.89h-11.73c-0.92,7.47-1.81,22.52,2.91,38.07
					C-19.19,95.24,2.7,96.28,2.7,96.28s21.89-1.05,29.21-25.15c4.72-15.55,3.84-30.6,2.91-38.07L23.09,33.06z"/>
				<path id="Path_2027" class="st10" d="M2.53,33.94c-7.53-0.21-12.76,4.54-16.87,4.02c-2.01-0.26-2.93-2.58-3.35-4.89h-11.73
					c-0.92,7.47-1.81,22.52,2.91,38.07c6.95,22.89,27.03,24.98,29.04,25.14V33.94z"/>
				<g id="Group_2500" transform="translate(12.586 44.098)">
					<path id="Path_2028" class="st11" d="M3.91-5.6c1.2,0.01,2.39-0.19,3.52-0.59C4.18-5.42-2.79-10.55-9.88-10.16
						c-0.52-0.02-1.02-0.01-1.51,0.01C-4.58-9.82,0.02-5.66,3.91-5.6z"/>
					<path id="Path_2029" class="st11" d="M22.24-11.03h-3.03c0.92,7.47,1.81,22.52-2.91,38.07C10.14,47.31-6.32,51.27-11.4,52.02
						c0.96,0.14,1.51,0.17,1.51,0.17s21.89-1.05,29.21-25.15C24.05,11.48,23.16-3.56,22.24-11.03z"/>
					<path id="Path_2030" class="st11" d="M-29.96-6.14c1.48,0.29,3.01,0.28,4.49-0.02c-3.26,0.56-4.45-2.84-4.81-4.87h-3.03
						C-32.89-8.72-31.91-6.71-29.96-6.14z"/>
				</g>
			</g>
			<path id="Path_2031" class="st7" d="M9.8,57.85c0.02-3.92-3.14-7.12-7.07-7.14c-3.92-0.02-7.12,3.14-7.14,7.07
				c-0.01,2.23,1.02,4.33,2.8,5.68v16.29c0,2.38,1.93,4.31,4.31,4.31s4.31-1.93,4.31-4.31l0,0V63.46C8.76,62.13,9.8,60.06,9.8,57.85
				z"/>
			<path id="Path_2032" class="st11" d="M-1.01,79.75V63.46c-3.11-2.36-3.72-6.8-1.35-9.91c1.28-1.68,3.25-2.71,5.36-2.79
				c-0.1,0-0.2-0.01-0.3-0.01c-3.91-0.01-7.09,3.15-7.1,7.05c-0.01,2.22,1.03,4.31,2.79,5.66v16.29c0,2.38,1.93,4.31,4.31,4.31
				c0.1,0,0.2-0.02,0.3-0.03C0.75,83.88-1,82.01-1.01,79.75z"/>
		</g>
		<g id="Group_2516" transform="translate(0 11.787)">
			<g id="Group_2504" transform="translate(22.81 13.678)">
				<path id="Path_2033" class="st12" d="M-2.25,97.47c0,0-0.52,1.51,0.7,3.84c0.3,0.58,1.57,0.76,2.45,1.23
					c1.06,0.54,0.48,1.5-0.26,1.96c-1.44,0.07-2.85-0.43-3.93-1.38c-2.53-2.51-4.81-4.77-4.81-4.77c0.72-0.69,1.5-1.32,2.34-1.86
					c0.37-0.15,0.7-0.37,0.99-0.64L-2.25,97.47z"/>
				<path id="Path_2034" class="st12" d="M33.22,101.09c1.46,1.77,3.59,2.84,5.88,2.96c0.84,0,1.52,0.67,1.52,1.51
					c0,0.1-0.01,0.2-0.03,0.29H29.68c0.02-1,0.14-1.99,0.36-2.97c0.15-0.36,0.24-0.75,0.25-1.15L33.22,101.09z"/>
				<path id="Path_2035" class="st13" d="M7.69,47.23c0,0,1.43,18.62,1.78,24.13C8.78,77.75-5.52,95.8-5.52,95.8l4.05,3.2
					c0,0,17.53-19.84,18.88-24.62c1.35-4.78,2.76-24.88,2.76-24.88L7.69,47.23z"/>
				<path id="Path_2036" class="st14" d="M3.91,48.39c0,0,21.96,19.31,22.91,24.75c-0.27,8.03,3.13,28.93,3.13,28.93l3.81-0.54
					c0,0,0.54-24.22,1.36-29.11S20.17,49.5,20.17,49.5L3.91,48.39z"/>
				<path id="Path_2037" class="st15" d="M26.72,21.51l1.61,5.89L25,28.46c0,0-2.15-2.8-1.98-2.97
					C23.19,25.32,26.72,21.51,26.72,21.51z"/>
				<path id="Path_2038" class="st7" d="M19.79,9.21c0,0-9.54-2.72-15.88,7.59c-1.33,5.3-4.22,22.61-0.55,33.73
					c6.08,0.44,12.18,0.44,18.27,0l2.72-26.86l0.45-4.25c0,0,1.22-7.26-2.35-9.06C21.64,9.82,20.74,9.43,19.79,9.21z"/>
				<g id="Group_2503" transform="translate(26.178)">
					<path id="Path_2039" class="st16" d="M-12.78,9.98c0,0,2.11-1.85,2.42-3.44s-0.56-3-0.91-5.14s3.96-5.06,5.3-4.65
						s2.12,0.71,2.49,3.6c0.09,0.94,0.82,3.91,0.82,3.91l-1.36,0.17c0,0,0.07,0.4,0.16,0.95c0.02,0.13,0.12,0.96,0.12,0.96
						c0.08,0.61,0.07,1.23-0.02,1.84c-0.3,0.89-1.79,0.07-2.3,0.16s-0.78,2.59-0.62,3.53c0.2,1.12,0.6,3.3,0.1,3.19
						C-7.26,14.91-13.59,13.83-12.78,9.98z"/>
					<path id="Path_2040" class="st17" d="M-12.28-3.29c0,0-3.43,0.45-2.06,4.37c0.87,2.4,3.8,3.21,3.8,3.21s-0.52-2.13-0.16-2.55
						c0.35-0.42,1.64,0.24,1.35,1.3C-9.53,3.67-9.5,4.34-9.29,4.96l1.11-0.04c0,0-0.82-1.56-0.44-2.24s1.41-1.26,1.1-2.18
						s1.71-2.3,5.09-2.85c0.86-0.63,1.66-3.75-3.7-4.01C-7.92-6.45-11.56-5.54-12.28-3.29z"/>
				</g>
			</g>
			<g id="Group_2514">
				<g id="Group_2513">
					<path id="Path_2041" class="st10" d="M67.64,11.23l12.47,9.62l1.75-2.27l-2.76-2.13l1.72-2.23l2.76,2.13l2.85-3.69L74.45,3.41
						L67.64,11.23z"/>
					<g id="Group_2508" transform="translate(102.222 8.483)">
						<g id="Group_2507">
							<g id="Group_2505" transform="translate(5.782 14.41)">
								<path id="Path_2042" class="st18" d="M-27.39-8.42l-0.33-0.25l-1.72,2.23l2.76,2.13l-1.56,2.02l0.33,0.25l1.75-2.27
									l-2.76-2.13L-27.39-8.42z"/>
							</g>
							<g id="Group_2506">
								<path id="Path_2043" class="st18" d="M-27.78-5.07l-0.21,0.24l11.66,9l-2.65,3.44l0.33,0.25l2.85-3.69L-27.78-5.07z"/>
							</g>
						</g>
					</g>
					<path id="Path_2044" class="st10" d="M67.68-1.11L19.32,61.59l7.46,5.76L75.14,4.64c1.57-2.08,1.16-5.03-0.92-6.6
						C72.17-3.5,69.26-3.13,67.68-1.11L67.68-1.11z"/>
					<path id="Path_2045" class="st9" d="M74.38-1.88L22.94,64.38l3.84,2.96L75.14,4.64C76.69,2.62,76.36-0.27,74.38-1.88z"/>
					<path id="Path_2046" class="st11" d="M74.28-1.97c-0.97-0.75-2.2-1.09-3.42-0.94c2.58,0.25,4.47,2.54,4.23,5.12
						c-0.08,0.89-0.42,1.73-0.97,2.43L26.14,66.86l0.63,0.49L75.14,4.64C76.73,2.58,76.35-0.38,74.28-1.97
						C74.28-1.97,74.28-1.97,74.28-1.97z"/>
					<path id="Path_2047" class="st19" d="M24.42,52.06c-0.14,0.11-0.26,0.23-0.37,0.37c-0.72,0.94-0.55,2.29,0.39,3.01l6.84,5.27
						c0.94,0.72,2.28,0.55,3.01-0.38c0,0,0,0,0,0c0.11-0.14,0.19-0.29,0.26-0.45L24.42,52.06z"/>
					<path id="Path_2048" class="st10" d="M0.31,62.09c-4.41,5.72-3.35,13.93,2.37,18.34c0,0,0,0,0,0l11.08,8.55
						c5.75,4.37,13.95,3.25,18.32-2.5c4.33-5.69,3.28-13.8-2.35-18.21l-11.08-8.55C12.93,55.31,4.72,56.37,0.31,62.09
						C0.31,62.09,0.31,62.09,0.31,62.09z M26.18,71.82c3.54,2.72,4.21,7.8,1.48,11.35s-7.8,4.21-11.35,1.48
						c-1.84-1.41-2.98-3.55-3.14-5.87c-4.39,0.84-8.63-2.04-9.47-6.43s2.04-8.63,6.43-9.47s8.63,2.04,9.47,6.43
						c0.06,0.32,0.1,0.65,0.13,0.97C22,69.85,24.35,70.41,26.18,71.82L26.18,71.82z"/>
					<g id="Group_2512" transform="translate(6.712 79.96)">
						<g id="Group_2511">
							<g id="Group_2509" transform="translate(4.348)">
								<path id="Path_2049" class="st11" d="M18.67-11.7L7.59-20.24c-3.64-2.81-8.49-3.49-12.77-1.8
									c4.05-1.25,8.46-0.45,11.82,2.14l11.08,8.55c5.72,4.39,6.79,12.59,2.39,18.31c-1.45,1.88-3.38,3.34-5.6,4.2
									c6.9-2.11,10.79-9.41,8.68-16.31C22.41-7.75,20.83-10.04,18.67-11.7L18.67-11.7z"/>
							</g>
							<g id="Group_2510" transform="translate(0 8.557)">
								<path id="Path_2050" class="st11" d="M1.74-25.1c-4.29,1.24-6.76,5.72-5.52,10.01c1.16,4.01,5.19,6.48,9.29,5.69
									c0.3,4.45,4.15,7.82,8.6,7.52c0.92-0.06,1.83-0.28,2.68-0.65C12.51-1.27,8.03-3.72,6.77-8C6.61-8.56,6.51-9.14,6.47-9.73
									c-4.39,0.84-8.62-2.04-9.46-6.43C-3.7-19.88-1.74-23.59,1.74-25.1L1.74-25.1z"/>
							</g>
						</g>
					</g>
				</g>
				
					<rect id="Rectangle_697" x="23.6" y="54.48" transform="matrix(0.6097 -0.7927 0.7927 0.6097 -37.2336 44.4133)" class="st19" width="5.76" height="11.06"/>
				
					<rect id="Rectangle_698" x="62.09" y="8.68" transform="matrix(0.585 -0.811 0.811 0.585 15.0193 56.2165)" class="st20" width="0.71" height="9.51"/>
				
					<rect id="Rectangle_699" x="59.34" y="12.22" transform="matrix(0.5846 -0.8113 0.8113 0.5846 11.0293 55.4824)" class="st20" width="0.71" height="9.51"/>
				<path id="Path_2051" class="st20" d="M35.96,55.44l-7.64-5.51l0.42-0.58l7.68,5.51L35.96,55.44z"/>
			</g>
			<g id="Group_2515" transform="translate(21.587 38.702)">
				<path id="Path_2052" class="st16" d="M8.95,24.5c-0.78-0.92-7.83-15.2-8.1-16.13C0.59,7.43,8.95-3,8.95-3L4.18-8.98
					c0,0-7.14,8.47-11.99,15.65c0.9,7.97,11.08,16.35,14.43,19.58c0.05,0.47-0.77,1.53-0.77,1.53c1.06,0.75,2.08,1.55,3.06,2.4
					c0.5,0.44,1.77,1.94,1.77,1.94C12.66,28.56,9.39,25.01,8.95,24.5z"/>
				<path id="Path_2053" class="st21" d="M5.12,2.54L-1.79-3.9c0,0,7.38-9.06,10.99-8.73c3.58,0.33,5.73,4.51,3.75,6.77
					S5.12,2.54,5.12,2.54z"/>
			</g>
			<path id="Path_2054" class="st16" d="M51.24,46.09c0.33-1.25,0.02-2.47-1.42-4.75c-0.33-0.8-0.71-1.57-1.13-2.33
				c-0.46-0.7-1.03-1.3-1.7-1.8c-2.03-1.78-2.4-2.48-3.15-2.83s-0.8,0.87-0.1,1.56c0.36,0.33,0.67,0.71,0.93,1.12
				c0,0-2.54-1.42-3.51-2.97c-0.99-1.44-2.85,0.84-1,3.93c1.85,3.1,3.45,3.74,5.34,4.4c1.89,0.66,1.72,2.07,0.91,3.11
				c-0.81,1.04,0.74,3.65,2.95,2.8C50.28,47.89,50.97,47.08,51.24,46.09z"/>
		</g>
		<g id="Group_2522" transform="translate(194.463 63.679)">
			<path id="Path_2055" class="st12" d="M-25.48,59.27c-1.51,1.84-3.73,2.95-6.11,3.07c-0.87-0.01-1.58,0.7-1.58,1.57
				c0,0.1,0.01,0.21,0.03,0.31h11.35c-0.02-1.04-0.15-2.07-0.37-3.08c-0.16-0.38-0.25-0.78-0.26-1.19L-25.48,59.27z"/>
			<path id="Path_2056" class="st13" d="M-4.83,50.41c0,0-5.32,4.41-8.7,1.87c-5.15-3.86-11.28-14.32-14.75-14.32
				c2.89,1.56,5.64,22.81,5.64,22.81l-3.92-0.42c0,0-18.36-29.74-9.92-34.48c11.21-6.3,26.73,12.65,26.73,12.65L-4.83,50.41z"/>
			<path id="Path_2057" class="st12" d="M14.68,58.32c0,0,1.47,0.42,2.64,2.65c0.29,0.56-0.26,1.65-0.37,2.6
				c-0.16,1.13,0.92,1.2,1.69,0.87c0.84-1.1,1.22-2.48,1.06-3.85c-0.59-3.36-1.12-6.4-1.12-6.4c-0.94,0.19-1.86,0.46-2.74,0.82
				c-0.32,0.21-0.67,0.35-1.04,0.43L14.68,58.32z"/>
			<g id="Group_2521">
				<g id="Group_2518" transform="translate(0 0.527)">
					<g id="Group_2517">
						<path id="Path_2058" class="st16" d="M-17.68,10.18c-4.58,2.3-9.56,3.66-14.67,4.03c-7.08-4.46-10.5-15.97-12.13-20.27
							c-1.1-0.88-3.07-0.71-4.07-2.92c-0.37-0.84-0.32-3.49,3.41-2.88c3.73,0.61,2.86,3.62,3.39,4.7s10.65,12.7,11.4,13.36
							s9.82-1.68,9.82-1.68L-17.68,10.18z"/>
						<path id="Path_2059" class="st16" d="M-43.1-10.76c0,0-3.77-3.81-6.6-5.09c-1.61-0.63-1.49,0.35-1.17,0.58
							c0.33,0.23,3,2.72,3.28,2.98c-0.72,0.73-1.12,1.72-1.11,2.75C-46.62-9.52-43.1-10.76-43.1-10.76z"/>
					</g>
					<path id="Path_2060" class="st21" d="M-26.47,4.51l2.47,8.86c0,0,7.87-0.41,12.38-4.47c2.48-2.24,1.99-8.3-0.91-7.54
						C-17.15,2.57-26.47,4.51-26.47,4.51z"/>
				</g>
				<path id="Path_2061" class="st14" d="M5.18,41.73c0,0,3.69,6.04-0.92,10.63c-4.57,4.54-15.37,5.03-15.97,8.44
					c7.66-4.5,26.36-5.58,26.36-5.58l1.07,3.57c0,0-37.54,17.13-40.75,8.01C-29.31,54.67-7.97,42.65-7.97,42.65L5.18,41.73z"/>
				<path id="Path_2062" class="st7" d="M-11.04,1.02c0,0,7.5-1.9,14.52,0.39c0.4,1.58,2.74-1.97,2.67,5.65
					c1.72,10.01,2.72,29.05,0,37.29C1.12,44.7-4.71,44.67-8.88,42.25c-4.36-2.53-5.42-8.16-5.42-8.16s-2.07-10.62-3.54-17.38
					c-1.24-5.69,1.22-11.5,2.14-12.35C-14.58,2.74-12.93,1.57-11.04,1.02z"/>
				<g id="Group_2519" transform="translate(50.496 3.965)">
					<path id="Path_2063" class="st16" d="M-54.06-2.84c0,0-2.14-1.48-2.1-3.17s1.51-2.31,2.35-4.4c0.83-2.09-3.17-6.63-4.62-6.52
						s-2.31,0.25-3.33,3.09c-0.3,0.93-1.7,3.79-1.7,3.79l1.35,0.47c0,0-0.2,0.33-0.45,0.79c-0.04,0.07,0.82,0.2,0.74,0.26
						c-0.35,0.16-0.7,0.28-1.07,0.36c-0.4,0.73-0.67,1.53-0.79,2.35c0.1,0.97,2.28,0.45,2.78,0.67c0.5,0.21-0.58,3.8-0.78,4.37
						c-0.26,0.24,1.1,1.74,1.18,1.72C-59.35,0.69-57.21,0.19-54.06-2.84z"/>
				</g>
				<path id="Path_2064" class="st17" d="M-10.59-11.41c1.17,1.04,2.53,1.84,4,2.38c-0.58,1.11-0.49,2.18,0,2.54
					C-6.23-6.13-6.94-5.2-6.94-5.2l0.46,0.41c0,0,0.4-1.26,1.11-1.26S-5.5-3.99-5.55-2.74c1.77-2.08,3.84-4.14,4.22-5.87
					c0.28-0.92-0.17-1.89-1.05-2.28c-0.23-1.27-1.19-2.28-2.44-2.58c-2.31-0.77-5.43-1.86-5.76-2.47
					C-11.28-14.75-11.73-12.3-10.59-11.41z"/>
				<g id="Group_2520" transform="translate(23.544 23.053)">
					<path id="Path_2065" class="st16" d="M-21.92-15.57c0,0-10.66,3.83-12.4,4.81s-15.71,5.13-16.93,4.9
						c-1.07-0.2-1.33-2.52-3.25-2.41c-0.31-0.01-0.62,0.06-0.9,0.2c-1.6,0.67-3.54,5.82,3.07,6.18l0,0l0.14,0.01
						c0.01,0,0.02,0,0.02,0l0,0c1.65,0.09,15.81,0.65,23.41-1.82C-23.24-5.5-20.1-15.08-21.92-15.57z"/>
					<path id="Path_2066" class="st21" d="M-31.25-12.55l7.67,6.38c0,0,4.65-4.83,5.92-10.76c0.27-1.26,0.94-2.03,0-3.38
						c-0.91-1.29-2.61-1.74-4.04-1.07C-24.52-20.38-31.25-12.55-31.25-12.55z"/>
				</g>
			</g>
		</g>
	</g>
</g>
</svg>
